<svg width="246" height="68" viewBox="0 0 246 68" fill="none" xmlns="http://www.w3.org/2000/svg">
<g clip-path="url(#clip0)">
<path d="M110.449 41.4863V41.3457C110.449 27.1972 121.111 15.6113 136.395 15.6113C145.779 15.6113 151.394 18.7363 156.014 23.2851L149.045 31.32C145.209 27.8356 141.301 25.7028 136.326 25.7028C127.937 25.7028 121.895 32.6676 121.895 41.2008V41.3454C121.895 49.8747 127.793 56.9821 136.326 56.9821C142.012 56.9821 145.496 54.7067 149.404 51.1559L156.373 58.1891C151.25 63.6637 145.566 67.0739 135.967 67.0739C121.322 67.0742 110.449 55.7734 110.449 41.4863Z" fill="white"/>
<path d="M161.699 58.9746L168.164 51.2246C172.645 54.9199 177.338 57.2675 183.021 57.2675C187.501 57.2675 190.202 55.4902 190.202 52.5761V52.4316C190.202 49.6616 188.497 48.2363 180.178 46.1054C170.157 43.5449 163.69 40.7754 163.69 30.8925V30.7519C163.69 21.7226 170.938 15.7519 181.102 15.7519C187.811 15.6439 194.348 17.8805 199.584 22.0761L193.899 30.3261C189.493 27.2675 185.157 25.4199 180.959 25.4199C176.768 25.4199 174.563 27.3418 174.563 29.7578V29.9C174.563 33.1675 176.694 34.232 185.301 36.439C195.391 39.0679 201.077 42.6949 201.077 51.369V51.5077C201.077 61.3905 193.545 66.9335 182.811 66.9335C175.035 66.9624 167.521 64.1295 161.699 58.9746V58.9746Z" fill="white"/>
<path d="M206.475 58.9746L212.947 51.2246C217.424 54.9199 222.115 57.2675 227.805 57.2675C232.279 57.2675 234.98 55.4902 234.98 52.5761V52.4316C234.98 49.6616 233.275 48.2363 224.955 46.1054C214.934 43.5449 208.467 40.7754 208.467 30.8925V30.7519C208.467 21.7226 215.717 15.7519 225.881 15.7519C232.591 15.6445 239.128 17.881 244.365 22.0761L238.68 30.3261C234.27 27.2675 229.934 25.4199 225.74 25.4199C221.548 25.4199 219.341 27.3418 219.341 29.7578V29.9C219.341 33.1675 221.474 34.232 230.078 36.439C240.173 39.0679 245.857 42.6949 245.857 51.369V51.5077C245.857 61.3905 238.322 66.9335 227.589 66.9335C219.813 66.9606 212.298 64.1279 206.475 58.9746V58.9746Z" fill="white"/>
<path d="M8.256 46.303L0 54.564H8.014L0 62.578H8.861V67.699H27.166V19.135L0 46.303H8.256Z" fill="white"/>
<path d="M76.77 45.0429H71.8086V33.92L76.77 38.8711V45.0429ZM66.0722 19.74V67.705H71.707V51.68H77.2051V67.705H87.082V46.9863H93.3183L66.0722 19.74Z" fill="white"/>
<path d="M54.4453 27.6953H49.48V16.5664H54.4449L54.4453 27.6953ZM54.4453 45.0429H49.48V33.916H54.4449L54.4453 45.0429ZM43.6445 27.6953H38.6738V16.5664H43.6445V27.6953ZM43.6445 45.0429H38.6738V33.916H43.6445V45.0429ZM46.59 0L32.6582 13.93L32.6094 67.7H38.6738V51.6738H43.8984V67.6992H49.2168V51.6738H54.4453V67.6992H60.4609V13.8808L46.59 0Z" fill="white"/>
</g>
<defs>
<clipPath id="clip0">
<rect width="245.857" height="67.705" fill="white"/>
</clipPath>
</defs>
</svg>
