<svg id="Layer_1" data-name="Layer 1" xmlns="http://www.w3.org/2000/svg" width="116.38" height="32.018" viewBox="0 0 116.38 32.018">
  <path id="Path_49" data-name="Path 49" d="M110.448,27.857v-.066A11.968,11.968,0,0,1,122.724,15.61a12.144,12.144,0,0,1,9.285,3.634L128.7,23.03a8.681,8.681,0,0,0-6.015-2.66c-3.97,0-6.833,3.313-6.833,7.335v.071c0,4.032,2.792,7.4,6.833,7.4,2.688,0,4.339-1.074,6.185-2.754l3.313,3.313a12.037,12.037,0,0,1-9.654,4.2,11.883,11.883,0,0,1-12.077-12.077Z" transform="translate(-58.181 -8.242)" fill="#005984"/>
  <path id="Path_50" data-name="Path 50" d="M161.7,36.231l3.057-3.667a10.81,10.81,0,0,0,7.032,2.863c2.12,0,3.4-.842,3.4-2.219v-.071c0-1.311-.8-1.983-4.732-2.991-4.732-1.216-7.8-2.522-7.8-7.2v-.066c0-4.259,3.431-7.1,8.239-7.1a13.619,13.619,0,0,1,8.745,3l-2.688,3.9a11.041,11.041,0,0,0-6.124-2.324c-1.988,0-3.029.909-3.029,2.054v.066c0,1.547,1.008,2.049,5.082,3.095,4.775,1.245,7.467,2.962,7.467,7.065V32.7c0,4.675-3.568,7.3-8.646,7.3A14.978,14.978,0,0,1,161.7,36.231Z" transform="translate(-85.18 -8.329)" fill="#005984"/>
  <path id="Path_51" data-name="Path 51" d="M206.47,36.215l3.09-3.682a10.788,10.788,0,0,0,7.027,2.863c2.12,0,3.4-.842,3.4-2.219v-.071c0-1.311-.8-1.983-4.732-2.991-4.732-1.216-7.8-2.522-7.8-7.2v-.066c0-4.259,3.431-7.1,8.239-7.1a13.652,13.652,0,0,1,8.75,3l-2.693,3.9a11.054,11.054,0,0,0-6.124-2.324c-1.983,0-3.029.909-3.029,2.054v.066c0,1.547,1.008,2.049,5.082,3.095,4.775,1.245,7.467,2.962,7.467,7.065v.066c0,4.675-3.568,7.3-8.646,7.3A15.006,15.006,0,0,1,206.47,36.215Z" transform="translate(-108.763 -8.314)" fill="#005984"/>
  <path id="Path_52" data-name="Path 52" d="M3.909,31.993,0,35.9H3.791L0,39.7H4.193V42.12h8.665V19.14L0,31.993Z" transform="translate(0 -10.101)" fill="#949b50"/>
  <path id="Path_53" data-name="Path 53" d="M71.133,31.673H68.767V26.429l2.366,2.342ZM66.07,19.7V42.415h2.669V34.843h2.6v7.572h4.671v-9.8h2.953Z" transform="translate(-34.804 -10.396)" fill="#005984"/>
  <path id="Path_54" data-name="Path 54" d="M42.972,13.129H40.605V7.862h2.366Zm0,8.206H40.605V16.073h2.366Zm-5.116-8.206H35.49V7.862h2.366Zm0,8.206H35.49V16.073h2.366ZM39.276.04,32.66,6.613V32.058h2.868V24.487h2.451v7.572H40.5V24.487h2.475v7.572h2.839V6.589Z" transform="translate(-17.204 -0.04)" fill="#5f604b"/>
</svg>
