<svg width="29" height="29" viewBox="0 0 29 29" fill="none" xmlns="http://www.w3.org/2000/svg">
<g clip-path="url(#clip0)">
<path d="M14.167 0C11.365 0 8.62599 0.83088 6.29624 2.38757C3.96649 3.94426 2.15067 6.15684 1.0784 8.74552C0.0061326 11.3342 -0.274421 14.1827 0.272216 16.9308C0.818852 19.679 2.16813 22.2033 4.14942 24.1846C6.13071 26.1659 8.65503 27.5151 11.4032 28.0618C14.1513 28.6084 16.9998 28.3279 19.5885 27.2556C22.1772 26.1833 24.3897 24.3675 25.9464 22.0378C27.5031 19.708 28.334 16.969 28.334 14.167C28.334 10.4097 26.8414 6.80625 24.1846 4.14942C21.5278 1.49259 17.9243 0 14.167 0V0ZM18.714 8.224H17.147C16.9082 8.22934 16.6705 8.25746 16.437 8.308C16.2327 8.34638 16.0456 8.4479 15.9021 8.59824C15.7586 8.74858 15.6659 8.94017 15.637 9.146C15.6005 9.32543 15.5811 9.50791 15.579 9.691C15.579 10.3577 15.579 11.0267 15.579 11.698V11.769H18.579C18.705 11.769 18.708 11.769 18.693 11.889C18.6263 12.4143 18.555 12.9397 18.479 13.465C18.421 13.894 18.368 14.344 18.314 14.783C18.295 14.952 18.299 14.952 18.13 14.952H15.556V23.092H12.256V14.952H9.63C9.514 14.952 9.514 14.952 9.514 14.838V11.877C9.514 11.787 9.54 11.766 9.628 11.766H12.267V9.208C12.269 8.55087 12.4154 7.90222 12.696 7.308C13.066 6.51529 13.725 5.89391 14.538 5.571C15.0894 5.34235 15.6821 5.23001 16.279 5.241C16.967 5.252 17.655 5.282 18.344 5.307C18.473 5.307 18.599 5.333 18.728 5.339C18.799 5.339 18.828 5.369 18.822 5.439V8.117C18.823 8.2 18.8 8.224 18.714 8.224Z" fill="white"/>
</g>
<defs>
<clipPath id="clip0">
<rect width="28.334" height="28.334" fill="white"/>
</clipPath>
</defs>
</svg>
