<svg width="29" height="29" viewBox="0 0 29 29" fill="none" xmlns="http://www.w3.org/2000/svg">
<g clip-path="url(#clip0)">
<path d="M14.167 0C11.365 0 8.62599 0.83088 6.29624 2.38757C3.96649 3.94426 2.15067 6.15684 1.07841 8.74552C0.00613832 11.3342 -0.274416 14.1827 0.272221 16.9308C0.818858 19.679 2.16813 22.2033 4.14942 24.1846C6.13072 26.1659 8.65503 27.5151 11.4032 28.0618C14.1513 28.6084 16.9998 28.3279 19.5885 27.2556C22.1772 26.1833 24.3897 24.3675 25.9464 22.0378C27.5031 19.708 28.334 16.969 28.334 14.167C28.334 10.4097 26.8414 6.80625 24.1846 4.14942C21.5278 1.49259 17.9243 0 14.167 0V0ZM9.94101 21.8H6.77001V11.6H9.94101V21.8ZM8.36101 10.2C7.93614 10.2009 7.5241 10.0545 7.19504 9.78574C6.86599 9.51697 6.64027 9.14246 6.55633 8.72597C6.47238 8.30947 6.53539 7.87676 6.73464 7.50151C6.93389 7.12627 7.25705 6.83168 7.64909 6.66793C8.04113 6.50418 8.47782 6.48138 8.88478 6.60342C9.29174 6.72546 9.64382 6.98479 9.88105 7.33725C10.1183 7.68971 10.226 8.11351 10.1859 8.53648C10.1458 8.95945 9.96029 9.35543 9.66101 9.657C9.49122 9.82978 9.28897 9.96731 9.06588 10.0617C8.84278 10.1561 8.60324 10.2055 8.36101 10.207V10.2ZM21.823 21.8H18.652V16.842C18.652 15.659 18.631 14.136 17.005 14.136C15.379 14.136 15.105 15.422 15.105 16.756V21.8H11.929V11.6H14.971V13H15.007C15.3118 12.4801 15.7516 12.0524 16.2798 11.7621C16.8079 11.4718 17.4047 11.3297 18.007 11.351C21.223 11.351 21.812 13.465 21.812 16.211L21.823 21.8Z" fill="white"/>
</g>
<defs>
<clipPath id="clip0">
<rect width="28.334" height="28.334" fill="white"/>
</clipPath>
</defs>
</svg>
