<svg width="29" height="29" viewBox="0 0 29 29" fill="none" xmlns="http://www.w3.org/2000/svg">
<g clip-path="url(#clip0)">
<path d="M14.167 0C11.365 0 8.62599 0.83088 6.29624 2.38757C3.96648 3.94426 2.15066 6.15684 1.0784 8.74552C0.0061307 11.3342 -0.274423 14.1827 0.272214 16.9308C0.81885 19.679 2.16813 22.2033 4.14942 24.1846C6.13071 26.1659 8.65503 27.5151 11.4032 28.0618C14.1513 28.6084 16.9998 28.3279 19.5885 27.2556C22.1772 26.1833 24.3897 24.3675 25.9464 22.0378C27.5031 19.708 28.334 16.969 28.334 14.167C28.334 10.4097 26.8414 6.80625 24.1846 4.14942C21.5278 1.49259 17.9243 0 14.167 0V0ZM21.267 10.527V11C21.2676 12.8696 20.765 14.7049 19.812 16.3134C18.859 17.9219 17.4907 19.2442 15.8505 20.1417C14.2104 21.0392 12.359 21.4787 10.4905 21.4142C8.62199 21.3497 6.8053 20.7835 5.231 19.775C7.16755 20.0047 9.11639 19.4598 10.653 18.259C9.8872 18.2457 9.14474 17.9932 8.52965 17.5369C7.91456 17.0805 7.45767 16.4431 7.223 15.714C7.7794 15.823 8.35353 15.8011 8.9 15.65C8.07125 15.4827 7.32586 15.034 6.7902 14.3798C6.25455 13.7257 5.96159 12.9065 5.961 12.061C5.95999 12.0453 5.95999 12.0297 5.961 12.014C6.46883 12.2969 7.03697 12.4543 7.618 12.473C6.84241 11.9551 6.29351 11.1609 6.08317 10.2523C5.87284 9.34368 6.0169 8.38907 6.486 7.583C7.40547 8.71521 8.55304 9.64112 9.85402 10.3005C11.155 10.9599 12.5802 11.3379 14.037 11.41C13.9709 11.1369 13.9374 10.857 13.937 10.576C13.9372 9.84148 14.1582 9.12398 14.5712 8.51661C14.9843 7.90923 15.5704 7.44003 16.2534 7.16987C16.9364 6.89972 17.6849 6.8411 18.4017 7.0016C19.1184 7.16211 19.7704 7.53435 20.273 8.07C21.0937 7.90903 21.8807 7.60869 22.6 7.182C22.3296 8.03459 21.7571 8.75901 20.99 9.219C21.715 9.13311 22.4229 8.9386 23.09 8.642C22.5979 9.37332 21.98 10.0115 21.265 10.527H21.267Z" fill="white"/>
</g>
<defs>
<clipPath id="clip0">
<rect width="28.334" height="28.334" fill="white"/>
</clipPath>
</defs>
</svg>
