<svg width="29" height="29" viewBox="0 0 29 29" fill="none" xmlns="http://www.w3.org/2000/svg">
<g clip-path="url(#clip0)">
<path d="M14.167 0C11.365 0 8.62599 0.83088 6.29624 2.38757C3.96648 3.94426 2.15066 6.15684 1.0784 8.74552C0.0061307 11.3342 -0.274423 14.1827 0.272214 16.9308C0.81885 19.679 2.16813 22.2033 4.14942 24.1846C6.13071 26.1659 8.65503 27.5151 11.4032 28.0618C14.1513 28.6084 16.9998 28.3279 19.5885 27.2556C22.1772 26.1833 24.3897 24.3675 25.9464 22.0378C27.5031 19.708 28.334 16.969 28.334 14.167C28.334 10.4097 26.8414 6.80625 24.1846 4.14942C21.5278 1.49259 17.9243 0 14.167 0V0ZM23.086 14.816C23.058 16.825 22.872 18.844 22.053 19.59C21.736 19.879 21.433 20.06 20.226 20.171C18.726 20.312 16.669 20.332 15.126 20.334H13.206C11.66 20.334 9.613 20.313 8.106 20.171C6.899 20.06 6.606 19.879 6.279 19.59C5.449 18.837 5.269 16.79 5.243 14.764V13.622C5.264 11.579 5.443 9.501 6.279 8.742C6.596 8.455 6.899 8.272 8.106 8.161C9.6 8.022 11.661 8 13.206 8H15.121C16.669 8 18.714 8.024 20.221 8.163C21.428 8.274 21.721 8.457 22.048 8.744C22.871 9.49 23.053 11.51 23.081 13.518C23.0937 13.9507 23.0953 14.3833 23.086 14.816Z" fill="white"/>
<path d="M12.417 16.896L16.917 14.167L12.417 11.601V16.896Z" fill="white"/>
</g>
<defs>
<clipPath id="clip0">
<rect width="28.334" height="28.334" fill="white"/>
</clipPath>
</defs>
</svg>
